<!-- icon666.com - MILLIONS OF FREE VECTOR ICONS --><svg viewBox="0 0 64 64" xmlns="http://www.w3.org/2000/svg"><g id="_07-letter" data-name="07-letter"><path d="m24 19h4v.07c-1.99.03-3.98 1.19-4 3.47-.02 3.16 2.76 6.4 5.05 8.4l-.05.06h-2a3 3 0 0 1 -6 0c0 1.66-1.79 3-4 3a3 3 0 0 1 -3-3c0-4 5.24-13 8-13a2.415 2.415 0 0 1 2 1z" fill="#88ede9"></path><path d="m43 31a3 3 0 0 1 -6 0h-1.9c2.28-2.05 4.88-5.39 4.9-8.6.02-2.27-1.94-3.4-3.92-3.4h3.92a2.415 2.415 0 0 1 2-1c2.76 0 8 9 8 13a3 3 0 0 1 -3 3c-2.21 0-4-1.34-4-3z" fill="#88ede9"></path><path d="m51 5h-38a2.006 2.006 0 0 0 -2 2v27.83l13 10.17.15.17 4.72-4.17a4.021 4.021 0 0 1 2.65-1h.96a4.021 4.021 0 0 1 2.65 1l4.72 4.17.15-.17 13-10.17v-27.83a2.006 2.006 0 0 0 -2-2zm-4 29c-2.21 0-4-1.34-4-3a3 3 0 0 1 -6 0h-1.9a7.494 7.494 0 0 1 -3.11 2 10.345 10.345 0 0 1 -2.94-2.06l-.05.06h-2a3 3 0 0 1 -6 0c0 1.66-1.79 3-4 3a3 3 0 0 1 -3-3c0-4 5.24-13 8-13a2.415 2.415 0 0 1 2 1h4v.07h.03a4.016 4.016 0 0 1 3.97 2.82 4.231 4.231 0 0 1 4-2.89h4a2.415 2.415 0 0 1 2-1c2.76 0 8 9 8 13a3 3 0 0 1 -3 3z" fill="#ede9e1"></path><path d="m11 31v3.83l-10-7.83 10-9.29z" fill="#ed8497"></path><path d="m39.3 5h-14.61l2.11-1.96a7.647 7.647 0 0 1 10.4 0z" fill="#ed8497"></path><path d="m63 27-10 7.83v-3.83-13.29z" fill="#ed8497"></path><path d="m60 63h-56l20.15-17.83 4.72-4.17a4.021 4.021 0 0 1 2.65-1h.96a4.021 4.021 0 0 1 2.65 1l4.72 4.17z" fill="#ffacbc"></path><path d="m11 34.83 13 10.17.15.17-20.15 17.83h-1a2.006 2.006 0 0 1 -2-2v-34z" fill="#ff9dab"></path><path d="m53 34.83 10-7.83v34a2.006 2.006 0 0 1 -2 2h-1l-20.15-17.83.15-.17z" fill="#ff9dab"></path><path d="m20.505 42.266-16.205 14.194a2 2 0 0 1 -3.3-1.552v6.092a2.006 2.006 0 0 0 2 2h1l20.15-17.83-.15-.17z" fill="#ed8497"></path><path d="m59.7 56.5-16.231-14.214-3.469 2.714-.15.17 20.15 17.83h1a2.006 2.006 0 0 0 2-2v-6.048a2 2 0 0 1 -3.3 1.548z" fill="#ed8497"></path><path d="m28.091 60a5.99 5.99 0 0 1 -4.091-10.44l9.5-8.52a4.029 4.029 0 0 1 .844-.565 4 4 0 0 0 -1.864-.475h-.96a4.021 4.021 0 0 0 -2.65 1l-4.72 4.17-20.15 17.83h56l-3.39-3z" fill="#ff8aa3"></path><path d="m35.1 31a7.494 7.494 0 0 1 -3.11 2 10.345 10.345 0 0 1 -2.94-2.06c-2.29-2-5.07-5.24-5.05-8.4.02-2.28 2.01-3.44 4-3.47h.03a4.016 4.016 0 0 1 3.97 2.82 4.231 4.231 0 0 1 4-2.89h.08c1.98 0 3.94 1.13 3.92 3.4-.02 3.21-2.62 6.55-4.9 8.6z" fill="#ff8aa3"></path><path d="m35.1 28.429a8.058 8.058 0 0 1 -3.11 1.571 10.872 10.872 0 0 1 -2.94-1.619c-2.14-1.468-4.707-3.788-5.018-6.112-.007.092-.031.175-.032.271-.02 3.16 2.76 6.4 5.05 8.4a10.345 10.345 0 0 0 2.94 2.06 7.494 7.494 0 0 0 3.11-2c2.28-2.05 4.88-5.39 4.9-8.6 0-.106-.023-.2-.03-.3-.287 2.389-2.72 4.81-4.87 6.329z" fill="#f57188"></path><path d="m36.08 19h-.08a4.231 4.231 0 0 0 -4 2.89 4.017 4.017 0 0 0 -3.441-2.79 5.451 5.451 0 0 0 -.559 2.4 5.519 5.519 0 0 0 5.538 5.5h.924a5.539 5.539 0 0 0 3.968-1.667 6.817 6.817 0 0 0 1.526-3.169c0-.026.009-.052.012-.079-.162-2.051-2.006-3.085-3.888-3.085z" fill="#ffacbc"></path><ellipse cx="35.795" cy="24.679" fill="#f6fafd" rx=".825" ry="1.148" transform="matrix(.707 -.707 .707 .707 -6.964 32.554)"></ellipse><ellipse cx="36.582" cy="21.695" fill="#f6fafd" rx="1.642" ry="2.286" transform="matrix(.707 -.707 .707 .707 -4.622 32.236)"></ellipse><path d="m24 22.54a3.438 3.438 0 0 1 .065-.54h-1.441a1.884 1.884 0 0 0 -1.256.441c-1.768 1.559-3.368 5.559-3.368 5.559a2.652 2.652 0 0 1 3 3 3 3 0 0 0 6 0h2l.05-.06c-2.29-2-5.07-5.24-5.05-8.4z" fill="#56bfc2"></path><path d="m46 28s-1.6-4-3.368-5.559a1.884 1.884 0 0 0 -1.256-.441h-1.417a3.4 3.4 0 0 1 .041.4c-.02 3.21-2.62 6.55-4.9 8.6h1.9a3 3 0 0 0 6 0 2.652 2.652 0 0 1 3-3z" fill="#56bfc2"></path><g fill="#7fdeda"><path d="m28 19.07v-.07h-4l-.6.8a1.97 1.97 0 0 0 -.118 2.2h.783a3.769 3.769 0 0 1 3.935-2.93z"></path><path d="m40.6 19.8-.6-.8h-3.92c1.856 0 3.673 1.006 3.879 3h.755a1.968 1.968 0 0 0 -.114-2.2z"></path><path d="m16.148 29.856a.938.938 0 1 0 1.852.207 1.937 1.937 0 0 1 -1.937 1.937h-.126a1.938 1.938 0 0 1 -1.9-1.544c-.018.186-.04.375-.04.544a3 3 0 0 0 3 3c2.21 0 4-1.34 4-3a2.652 2.652 0 0 0 -3-3c-1.156 0-1.644 1.008-1.849 1.856z"></path><path d="m48.063 32h-.126a1.937 1.937 0 0 1 -1.937-1.937.938.938 0 1 0 1.852-.207c-.205-.848-.693-1.856-1.852-1.856a2.652 2.652 0 0 0 -3 3c0 1.66 1.79 3 4 3a3 3 0 0 0 3-3c0-.169-.022-.358-.04-.544a1.938 1.938 0 0 1 -1.897 1.544z"></path></g><path d="m48.053 33.8-8.192 6.293a1.84 1.84 0 0 1 -2.321-.051l-2.14-1.793a5.252 5.252 0 0 0 -6.8 0l-2.14 1.794a1.84 1.84 0 0 1 -2.321.051l-8.192-6.294a2.99 2.99 0 0 1 -1.393-1.07l-3.554-2.73v4.83l13 10.17.15.17 4.72-4.17a4.021 4.021 0 0 1 2.65-1h.96a4.021 4.021 0 0 1 2.65 1l4.72 4.17.15-.17 13-10.17v-4.83l-3.554 2.731a2.99 2.99 0 0 1 -1.393 1.069z" fill="#ded9d0"></path><path d="m1 27 10 7.83v-3.83-.889l-7.266-5.651z" fill="#d1738b"></path><path d="m53 30v1 3.83l10-7.83-2.833-2.632z" fill="#d1738b"></path><path d="m22 18a2.685 2.685 0 0 1 .9.166 2.013 2.013 0 0 1 1.1.834h4v.07h.03a4.016 4.016 0 0 1 3.97 2.82 4.231 4.231 0 0 1 4-2.89h4a2.415 2.415 0 0 1 2-1c2.76 0 8 9 8 13a2.986 2.986 0 0 1 -.183 1h.58l2.603-2v-23a2.006 2.006 0 0 0 -2-2h-33.924a28.826 28.826 0 0 0 4.216 13.183 1.858 1.858 0 0 1 .708-.183z" fill="#f7f3eb"></path><ellipse cx="48" cy="11" fill="#f6fafd" rx="2.475" ry="3.445" transform="matrix(.707 -.707 .707 .707 6.29 37.177)"></ellipse><ellipse cx="34.795" cy="8.679" fill="#f6fafd" rx=".825" ry="1.148" transform="matrix(.707 -.707 .707 .707 4.061 27.156)"></ellipse><path d="m15.29 12.682a.952.952 0 0 0 1.42 0 13.506 13.506 0 0 0 1.46-1.767 6.091 6.091 0 0 0 .767-1.771 2.4 2.4 0 0 0 -.293-1.836.7.7 0 0 0 -.209-.223 1.012 1.012 0 0 0 -1.045.184 7.28 7.28 0 0 0 -1.39 1.342 7.28 7.28 0 0 0 -1.39-1.342 1.012 1.012 0 0 0 -1.045-.184.7.7 0 0 0 -.209.223 2.4 2.4 0 0 0 -.293 1.836 6.091 6.091 0 0 0 .767 1.771 13.506 13.506 0 0 0 1.46 1.767z" fill="#f0c590"></path><path d="m40.68 12.951a.952.952 0 0 0 1.42 0 13.591 13.591 0 0 0 1.46-1.766 6.082 6.082 0 0 0 .766-1.772 2.4 2.4 0 0 0 -.292-1.836.726.726 0 0 0 -.209-.223 1.013 1.013 0 0 0 -1.045.185 7.218 7.218 0 0 0 -1.39 1.342 7.247 7.247 0 0 0 -1.39-1.342 1.013 1.013 0 0 0 -1.045-.185.718.718 0 0 0 -.21.223 2.4 2.4 0 0 0 -.292 1.836 6.085 6.085 0 0 0 .767 1.772 13.508 13.508 0 0 0 1.46 1.766z" fill="#f1d4b0"></path><path d="m38.527 17.788a.633.633 0 0 0 .946 0 9.1 9.1 0 0 0 .974-1.178 4.085 4.085 0 0 0 .511-1.181 1.6 1.6 0 0 0 -.2-1.224.48.48 0 0 0 -.14-.148.673.673 0 0 0 -.7.123 4.816 4.816 0 0 0 -.927.894 4.816 4.816 0 0 0 -.927-.894.673.673 0 0 0 -.7-.123.48.48 0 0 0 -.14.148 1.6 1.6 0 0 0 -.2 1.224 4.085 4.085 0 0 0 .511 1.181 9.1 9.1 0 0 0 .992 1.178z" fill="#f1d4b0"></path><path d="m34.763 12.894a.318.318 0 0 0 .474 0 4.487 4.487 0 0 0 .486-.589 2.007 2.007 0 0 0 .256-.59.8.8 0 0 0 -.1-.612.235.235 0 0 0 -.069-.075.34.34 0 0 0 -.349.062 2.423 2.423 0 0 0 -.463.447 2.423 2.423 0 0 0 -.463-.447.34.34 0 0 0 -.349-.062.235.235 0 0 0 -.069.075.8.8 0 0 0 -.1.612 2.007 2.007 0 0 0 .256.59 4.487 4.487 0 0 0 .49.589z" fill="#f1d4b0"></path><path d="m21.763 13.894a.318.318 0 0 0 .474 0 4.487 4.487 0 0 0 .486-.589 2.007 2.007 0 0 0 .256-.59.8.8 0 0 0 -.1-.612.235.235 0 0 0 -.069-.075.34.34 0 0 0 -.349.062 2.423 2.423 0 0 0 -.463.447 2.423 2.423 0 0 0 -.463-.447.34.34 0 0 0 -.349-.062.235.235 0 0 0 -.069.075.8.8 0 0 0 -.1.612 2.007 2.007 0 0 0 .256.59 4.487 4.487 0 0 0 .49.589z" fill="#f1d4b0"></path><path d="m17.763 38.894a.318.318 0 0 0 .474 0 4.487 4.487 0 0 0 .486-.589 2.007 2.007 0 0 0 .256-.59.8.8 0 0 0 -.1-.612.235.235 0 0 0 -.069-.075.34.34 0 0 0 -.349.062 2.423 2.423 0 0 0 -.463.447 2.423 2.423 0 0 0 -.463-.447.34.34 0 0 0 -.349-.062.235.235 0 0 0 -.069.075.8.8 0 0 0 -.1.612 2.007 2.007 0 0 0 .256.59 4.487 4.487 0 0 0 .49.589z" fill="#7fdeda"></path><path d="m12.763 24.894a.318.318 0 0 0 .474 0 4.487 4.487 0 0 0 .486-.589 2.007 2.007 0 0 0 .256-.59.8.8 0 0 0 -.1-.612.235.235 0 0 0 -.069-.075.34.34 0 0 0 -.349.062 2.423 2.423 0 0 0 -.463.447 2.423 2.423 0 0 0 -.463-.447.34.34 0 0 0 -.349-.062.235.235 0 0 0 -.069.075.8.8 0 0 0 -.1.612 2.007 2.007 0 0 0 .256.59 4.487 4.487 0 0 0 .49.589z" fill="#7fdeda"></path><path d="m14.763 21.894a.318.318 0 0 0 .474 0 4.487 4.487 0 0 0 .486-.589 2.007 2.007 0 0 0 .256-.59.8.8 0 0 0 -.1-.612.235.235 0 0 0 -.069-.075.34.34 0 0 0 -.349.062 2.423 2.423 0 0 0 -.463.447 2.423 2.423 0 0 0 -.463-.447.34.34 0 0 0 -.349-.062.235.235 0 0 0 -.069.075.8.8 0 0 0 -.1.612 2.007 2.007 0 0 0 .256.59 4.487 4.487 0 0 0 .49.589z" fill="#f0c590"></path><path d="m40.527 40.788a.633.633 0 0 0 .946 0 9.1 9.1 0 0 0 .974-1.178 4.085 4.085 0 0 0 .511-1.181 1.6 1.6 0 0 0 -.2-1.224.48.48 0 0 0 -.14-.148.673.673 0 0 0 -.7.123 4.816 4.816 0 0 0 -.927.894 4.816 4.816 0 0 0 -.927-.894.673.673 0 0 0 -.7-.123.48.48 0 0 0 -.14.148 1.6 1.6 0 0 0 -.2 1.224 4.085 4.085 0 0 0 .511 1.181 9.1 9.1 0 0 0 .992 1.178z" fill="#f1d4b0"></path><path d="m28.527 38.788a.633.633 0 0 0 .946 0 9.1 9.1 0 0 0 .974-1.178 4.085 4.085 0 0 0 .511-1.181 1.6 1.6 0 0 0 -.195-1.224.48.48 0 0 0 -.14-.148.673.673 0 0 0 -.7.123 4.816 4.816 0 0 0 -.927.894 4.816 4.816 0 0 0 -.927-.894.673.673 0 0 0 -.7-.123.48.48 0 0 0 -.14.148 1.6 1.6 0 0 0 -.195 1.224 4.085 4.085 0 0 0 .511 1.181 9.1 9.1 0 0 0 .982 1.178z" fill="#f1d4b0"></path><path d="m15.527 18.788a.633.633 0 0 0 .946 0 9.1 9.1 0 0 0 .974-1.178 4.085 4.085 0 0 0 .511-1.181 1.6 1.6 0 0 0 -.195-1.224.48.48 0 0 0 -.14-.148.673.673 0 0 0 -.7.123 4.816 4.816 0 0 0 -.927.894 4.816 4.816 0 0 0 -.927-.894.673.673 0 0 0 -.7-.123.48.48 0 0 0 -.14.148 1.6 1.6 0 0 0 -.2 1.224 4.085 4.085 0 0 0 .511 1.181 9.1 9.1 0 0 0 .987 1.178z" fill="#f0c590"></path><path d="m23.527 10.788a.633.633 0 0 0 .946 0 9.1 9.1 0 0 0 .974-1.178 4.085 4.085 0 0 0 .511-1.181 1.6 1.6 0 0 0 -.195-1.224.48.48 0 0 0 -.14-.148.673.673 0 0 0 -.7.123 4.816 4.816 0 0 0 -.923.894 4.816 4.816 0 0 0 -.927-.894.673.673 0 0 0 -.7-.123.48.48 0 0 0 -.14.148 1.6 1.6 0 0 0 -.195 1.224 4.085 4.085 0 0 0 .511 1.181 9.1 9.1 0 0 0 .978 1.178z" fill="#b8d9ce"></path><path d="m36.527 38.788a.633.633 0 0 0 .946 0 9.1 9.1 0 0 0 .974-1.178 4.085 4.085 0 0 0 .511-1.181 1.6 1.6 0 0 0 -.2-1.224.48.48 0 0 0 -.14-.148.673.673 0 0 0 -.7.123 4.816 4.816 0 0 0 -.927.894 4.816 4.816 0 0 0 -.927-.894.673.673 0 0 0 -.7-.123.48.48 0 0 0 -.14.148 1.6 1.6 0 0 0 -.2 1.224 4.085 4.085 0 0 0 .511 1.181 9.1 9.1 0 0 0 .992 1.178z" fill="#7fdeda"></path><path d="m27.29 16.682a.952.952 0 0 0 1.42 0 13.506 13.506 0 0 0 1.46-1.767 6.091 6.091 0 0 0 .767-1.771 2.4 2.4 0 0 0 -.293-1.836.7.7 0 0 0 -.209-.223 1.012 1.012 0 0 0 -1.045.184 7.28 7.28 0 0 0 -1.39 1.342 7.28 7.28 0 0 0 -1.39-1.342 1.012 1.012 0 0 0 -1.045-.184.7.7 0 0 0 -.209.223 2.4 2.4 0 0 0 -.293 1.836 6.091 6.091 0 0 0 .767 1.771 13.506 13.506 0 0 0 1.46 1.767z" fill="#b8d9ce"></path><path d="m23.29 42.682a.952.952 0 0 0 1.42 0 13.506 13.506 0 0 0 1.46-1.767 6.091 6.091 0 0 0 .767-1.771 2.4 2.4 0 0 0 -.293-1.836.7.7 0 0 0 -.209-.223 1.012 1.012 0 0 0 -1.045.184 7.28 7.28 0 0 0 -1.39 1.342 7.28 7.28 0 0 0 -1.39-1.342 1.012 1.012 0 0 0 -1.045-.184.7.7 0 0 0 -.209.223 2.4 2.4 0 0 0 -.293 1.836 6.091 6.091 0 0 0 .767 1.771 13.506 13.506 0 0 0 1.46 1.767z" fill="#f1d4b0"></path><path d="m47.29 18.682a.952.952 0 0 0 1.42 0 13.506 13.506 0 0 0 1.46-1.767 6.091 6.091 0 0 0 .767-1.771 2.4 2.4 0 0 0 -.293-1.836.7.7 0 0 0 -.209-.223 1.012 1.012 0 0 0 -1.045.184 7.28 7.28 0 0 0 -1.39 1.342 7.28 7.28 0 0 0 -1.39-1.342 1.012 1.012 0 0 0 -1.045-.184.7.7 0 0 0 -.209.223 2.4 2.4 0 0 0 -.293 1.836 6.091 6.091 0 0 0 .767 1.771 13.506 13.506 0 0 0 1.46 1.767z" fill="#b8d9ce"></path><path d="m18.937 9.144a2.4 2.4 0 0 0 -.293-1.836.7.7 0 0 0 -.209-.223 1.012 1.012 0 0 0 -1.045.184l-.052.039a28.821 28.821 0 0 0 .792 3.665c.011-.017.03-.041.04-.058a6.091 6.091 0 0 0 .767-1.771z" fill="#f1d4b0"></path><path d="m41.473 40.788a9.1 9.1 0 0 0 .974-1.178 4.085 4.085 0 0 0 .511-1.181 1.8 1.8 0 0 0 0-.717l-3.069 2.357c.186.225.408.474.634.719a.633.633 0 0 0 .95 0z" fill="#f0c590"></path><path d="m29.473 38.788a9.1 9.1 0 0 0 .974-1.178c.079-.136.149-.276.22-.416a5.334 5.334 0 0 0 -2.067 1.055l-.319.268c.081.09.163.181.246.271a.633.633 0 0 0 .946 0z" fill="#f0c590"></path><path d="m21.063 39.144a6.091 6.091 0 0 0 .767 1.771 13.506 13.506 0 0 0 1.46 1.767.952.952 0 0 0 1.42 0 13.506 13.506 0 0 0 1.46-1.767 8.4 8.4 0 0 0 .548-1.088l-.258.216a1.84 1.84 0 0 1 -2.321.051l-3.011-2.313a2.575 2.575 0 0 0 -.065 1.363z" fill="#f0c590"></path></g></svg>